<svg width="24" height="23" viewBox="0 0 24 23" fill="none" xmlns="http://www.w3.org/2000/svg">
<path d="M5 22.4851C4.0625 22.4851 3.13542 22.256 2.21875 21.7976C1.30208 21.3393 0.5625 20.7351 0 19.9851C0.541667 19.9851 1.09375 19.7716 1.65625 19.3445C2.21875 18.9174 2.5 18.2976 2.5 17.4851C2.5 16.4435 2.86458 15.558 3.59375 14.8289C4.32292 14.0997 5.20833 13.7351 6.25 13.7351C7.29167 13.7351 8.17708 14.0997 8.90625 14.8289C9.63542 15.558 10 16.4435 10 17.4851C10 18.8601 9.51042 20.0372 8.53125 21.0164C7.55208 21.9955 6.375 22.4851 5 22.4851V22.4851M5 19.9851C5.6875 19.9851 6.27604 19.7403 6.76562 19.2507C7.25521 18.7612 7.5 18.1726 7.5 17.4851C7.5 17.131 7.38021 16.8341 7.14062 16.5945C6.90104 16.3549 6.60417 16.2351 6.25 16.2351C5.89583 16.2351 5.59896 16.3549 5.35938 16.5945C5.11979 16.8341 5 17.131 5 17.4851C5 17.9643 4.94271 18.4018 4.82812 18.7976C4.71354 19.1935 4.5625 19.5685 4.375 19.9226C4.47917 19.9643 4.58333 19.9851 4.6875 19.9851C4.79167 19.9851 4.89583 19.9851 5 19.9851V19.9851M12.1875 14.9851L8.75 11.5476L19.9375 0.360122C20.1667 0.130955 20.4531 0.0111637 20.7969 0.00074707C21.1406 -0.0096696 21.4375 0.110122 21.6875 0.360122L23.375 2.04762C23.625 2.29762 23.75 2.58929 23.75 2.92262C23.75 3.25596 23.625 3.54762 23.375 3.79762L12.1875 14.9851V14.9851M6.25 17.4851V17.4851V17.4851V17.4851V17.4851V17.4851V17.4851V17.4851V17.4851V17.4851V17.4851V17.4851" fill="#735735"/>
</svg>
