<svg width="80" height="80" viewBox="0 0 80 80" fill="none" xmlns="http://www.w3.org/2000/svg">
<path opacity="0.1" d="M53.2 58.8L58.8 53.2L44 38.4V20H36V41.6L53.2 58.8ZM40 80C34.4667 80 29.2667 78.95 24.4 76.85C19.5333 74.75 15.3 71.9 11.7 68.3C8.1 64.7 5.25 60.4667 3.15 55.6C1.05 50.7333 0 45.5333 0 40C0 34.4667 1.05 29.2667 3.15 24.4C5.25 19.5333 8.1 15.3 11.7 11.7C15.3 8.1 19.5333 5.25 24.4 3.15C29.2667 1.05 34.4667 0 40 0C45.5333 0 50.7333 1.05 55.6 3.15C60.4667 5.25 64.7 8.1 68.3 11.7C71.9 15.3 74.75 19.5333 76.85 24.4C78.95 29.2667 80 34.4667 80 40C80 45.5333 78.95 50.7333 76.85 55.6C74.75 60.4667 71.9 64.7 68.3 68.3C64.7 71.9 60.4667 74.75 55.6 76.85C50.7333 78.95 45.5333 80 40 80ZM40 72C48.8667 72 56.4167 68.8833 62.65 62.65C68.8833 56.4167 72 48.8667 72 40C72 31.1333 68.8833 23.5833 62.65 17.35C56.4167 11.1167 48.8667 8 40 8C31.1333 8 23.5833 11.1167 17.35 17.35C11.1167 23.5833 8 31.1333 8 40C8 48.8667 11.1167 56.4167 17.35 62.65C23.5833 68.8833 31.1333 72 40 72Z" fill="#AB8A64"/>
</svg>
