<svg width="20" height="20" viewBox="0 0 20 20" fill="none" xmlns="http://www.w3.org/2000/svg">
<path d="M15 15C13.8 15 12.7417 14.6208 11.825 13.8625C10.9083 13.1042 10.3333 12.15 10.1 11H4.8C4.6 11.45 4.29167 11.8125 3.875 12.0875C3.45833 12.3625 3 12.5 2.5 12.5C1.8 12.5 1.20833 12.2583 0.725 11.775C0.241667 11.2917 0 10.7 0 10C0 9.3 0.241667 8.70833 0.725 8.225C1.20833 7.74167 1.8 7.5 2.5 7.5C3 7.5 3.45833 7.6375 3.875 7.9125C4.29167 8.1875 4.6 8.55 4.8 9H10.1C10.3333 7.85 10.9083 6.89583 11.825 6.1375C12.7417 5.37917 13.8 5 15 5C16.3833 5 17.5625 5.4875 18.5375 6.4625C19.5125 7.4375 20 8.61667 20 10C20 11.3833 19.5125 12.5625 18.5375 13.5375C17.5625 14.5125 16.3833 15 15 15ZM15 13C15.8333 13 16.5417 12.7083 17.125 12.125C17.7083 11.5417 18 10.8333 18 10C18 9.16667 17.7083 8.45833 17.125 7.875C16.5417 7.29167 15.8333 7 15 7C14.1667 7 13.4583 7.29167 12.875 7.875C12.2917 8.45833 12 9.16667 12 10C12 10.8333 12.2917 11.5417 12.875 12.125C13.4583 12.7083 14.1667 13 15 13Z" fill="#735735"/>
</svg>
