<svg width="22" height="22" viewBox="0 0 22 22" fill="none" xmlns="http://www.w3.org/2000/svg">
<path d="M19 7L18.05 4.95L16 4L18.05 3.05L19 1L19.95 3.05L22 4L19.95 4.95L19 7V7M7.5 7L6.55 4.95L4.5 4L6.55 3.05L7.5 1L8.45 3.05L10.5 4L8.45 4.95L7.5 7V7M19 18.5L18.05 16.45L16 15.5L18.05 14.55L19 12.5L19.95 14.55L22 15.5L19.95 16.45L19 18.5V18.5M4.1 21.7L1.3 18.9C1.1 18.7 1 18.4583 1 18.175C1 17.8917 1.1 17.65 1.3 17.45L12.45 6.3C12.65 6.1 12.8917 6 13.175 6C13.4583 6 13.7 6.1 13.9 6.3L16.7 9.1C16.9 9.3 17 9.54167 17 9.825C17 10.1083 16.9 10.35 16.7 10.55L5.55 21.7C5.35 21.9 5.10833 22 4.825 22C4.54167 22 4.3 21.9 4.1 21.7V21.7M4.85 19.6L12 12.4L10.6 11L3.4 18.15L4.85 19.6V19.6" fill="#735735"/>
</svg>
