<svg width="20" height="20" viewBox="0 0 20 20" fill="none" xmlns="http://www.w3.org/2000/svg">
<path d="M10 20C8.98333 20 7.94167 19.8167 6.875 19.45C5.80833 19.0833 4.84167 18.5833 3.975 17.95C3.10833 17.3167 2.39583 16.575 1.8375 15.725C1.27917 14.875 1 13.9667 1 13V10L5 13L3.45 14.55C3.93333 15.4 4.7 16.1333 5.75 16.75C6.8 17.3667 7.88333 17.7583 9 17.925V9H6V7H9V5.825C8.41667 5.60833 7.9375 5.24583 7.5625 4.7375C7.1875 4.22917 7 3.65 7 3C7 2.16667 7.29167 1.45833 7.875 0.875C8.45833 0.291667 9.16667 0 10 0C10.8333 0 11.5417 0.291667 12.125 0.875C12.7083 1.45833 13 2.16667 13 3C13 3.65 12.8125 4.22917 12.4375 4.7375C12.0625 5.24583 11.5833 5.60833 11 5.825V7H14V9H11V17.925C12.1167 17.7583 13.2 17.3667 14.25 16.75C15.3 16.1333 16.0667 15.4 16.55 14.55L15 13L19 10V13C19 13.9667 18.7208 14.875 18.1625 15.725C17.6042 16.575 16.8917 17.3167 16.025 17.95C15.1583 18.5833 14.1917 19.0833 13.125 19.45C12.0583 19.8167 11.0167 20 10 20ZM10 4C10.2833 4 10.5208 3.90417 10.7125 3.7125C10.9042 3.52083 11 3.28333 11 3C11 2.71667 10.9042 2.47917 10.7125 2.2875C10.5208 2.09583 10.2833 2 10 2C9.71667 2 9.47917 2.09583 9.2875 2.2875C9.09583 2.47917 9 2.71667 9 3C9 3.28333 9.09583 3.52083 9.2875 3.7125C9.47917 3.90417 9.71667 4 10 4Z" fill="#735735"/>
</svg>
