<svg width="20" height="20" viewBox="0 0 20 20" fill="none" xmlns="http://www.w3.org/2000/svg">
<path d="M2.38755 19C2.07088 18.9333 1.77505 18.7625 1.50005 18.4875C1.22505 18.2125 1.05422 17.9167 0.987549 17.6L17.5875 1C17.9375 1.08333 18.2375 1.25417 18.4875 1.5125C18.7375 1.77083 18.9125 2.06667 19.0125 2.4L2.38755 19ZM0.987549 12.7V9.9L9.88755 1H12.6875L0.987549 12.7ZM0.987549 5V3C0.987549 2.45 1.18338 1.97917 1.57505 1.5875C1.96672 1.19583 2.43755 1 2.98755 1H4.98755L0.987549 5ZM14.9875 19L18.9875 15V17C18.9875 17.55 18.7917 18.0208 18.4 18.4125C18.0084 18.8042 17.5375 19 16.9875 19H14.9875ZM7.28755 19L18.9875 7.3V10.1L10.0875 19H7.28755Z" fill="#735735"/>
</svg>
